<svg width="56" height="56" viewBox="0 0 56 56" fill="none" xmlns="http://www.w3.org/2000/svg">
<g clip-path="url(#clip0_83_263)">
<path fill-rule="evenodd" clip-rule="evenodd" d="M0 28C0 12.5361 12.5361 0 27.9897 0C43.4021 0 55.9072 12.4536 55.9897 27.8557V56H43.732V54.9381C43.732 50.5979 41.9691 46.6598 39.1237 43.8041C36.2784 40.9588 32.3402 39.2062 28 39.2062C20.5258 39.2062 14.2577 44.4227 12.6598 51.4124C5.04124 46.4227 0 37.8041 0 28ZM25.9485 36.9794H30.0412C36.3505 36.9794 41.4742 31.866 41.4742 25.5464C41.4742 22.3918 40.1959 19.5361 38.1237 17.4639C36.0515 15.3918 33.1959 14.1134 30.0412 14.1134H28.7629V11.0619C29.8557 10.732 30.6598 9.73196 30.6598 8.52577C30.6598 7.06186 29.4742 5.86598 28 5.86598C26.5258 5.86598 25.3299 7.06186 25.3299 8.52577C25.3299 9.73196 26.134 10.732 27.2268 11.0619V14.1134H25.9485C19.6392 14.1134 14.5155 19.2371 14.5155 25.5464C14.5155 28.7113 15.7938 31.567 17.866 33.6289C19.9381 35.701 22.7938 36.9794 25.9485 36.9794ZM23.4537 20.4124C24.928 20.4124 26.1238 21.6083 26.1238 23.0722C26.1238 24.5464 24.9177 25.7423 23.4537 25.7423C21.9898 25.7423 20.7939 24.5361 20.7939 23.0722C20.7939 21.6083 21.9795 20.4124 23.4537 20.4124ZM32.2272 20.4124C30.753 20.4124 29.5674 21.6083 29.5674 23.0722C29.5674 24.5361 30.753 25.7423 32.2272 25.7423C33.7014 25.7423 34.8973 24.5464 34.8973 23.0722C34.8973 21.598 33.7014 20.4124 32.2272 20.4124ZM27.8766 30.7216C29.3199 30.7113 30.3199 29.9484 30.6704 29.6185C30.9178 29.3917 31.3096 29.4124 31.5364 29.6598C31.7632 29.9072 31.7426 30.299 31.4951 30.5258C31.0312 30.9381 29.7632 31.9278 27.8869 31.9381H27.8353C25.9487 31.9381 24.6601 30.9484 24.1962 30.5258C23.9487 30.299 23.9178 29.9072 24.1446 29.6598C24.3714 29.4124 24.7632 29.3917 25.0106 29.6185C25.3714 29.9484 26.3817 30.7216 27.8353 30.7216H27.8766Z" fill="#38A3A5"/>
</g>
<defs>
<clipPath id="clip0_83_263">
<rect width="55.9897" height="56" fill="white"/>
</clipPath>
</defs>
</svg>
