<svg width="966" height="929" viewBox="0 0 966 929" fill="none" xmlns="http://www.w3.org/2000/svg">
<g filter="url(#filter0_i_87_379)">
<path fill-rule="evenodd" clip-rule="evenodd" d="M398.998 363.755C364.007 233.165 441.525 98.9288 572.052 63.9543C702.23 29.0731 836.033 105.94 871.581 235.821L935.265 473.494L831.732 501.236L829.329 492.268C819.509 455.616 795.707 426.349 765.213 408.673C734.741 391.084 697.513 385.197 660.854 395.02C597.724 411.935 556.585 470.173 558.905 532.816C483.265 507.922 421.183 446.549 398.998 363.755ZM638.487 380.858L673.056 371.595C726.346 357.316 758.053 302.538 743.753 249.17C736.615 222.53 719.355 201.308 697.164 188.498C674.973 175.689 647.961 171.357 621.315 178.496L610.518 181.389L603.613 155.62C612.096 150.361 616.626 140.096 613.896 129.91C610.584 117.547 597.864 110.132 585.412 113.468C572.96 116.804 565.566 129.61 568.878 141.972C571.607 152.158 580.662 158.783 590.639 159.096L597.544 184.866L586.746 187.759C533.456 202.038 501.773 256.903 516.049 310.183C523.211 336.911 540.47 358.133 562.638 370.855C584.829 383.665 611.842 387.997 638.487 380.858ZM579.661 246.983C592.135 243.64 604.966 251.048 608.285 263.435C611.628 275.91 604.133 288.764 591.745 292.083C579.358 295.402 566.504 287.907 563.185 275.52C559.866 263.132 567.186 250.325 579.661 246.983ZM654.398 226.957C641.923 230.299 634.603 243.106 637.922 255.494C641.241 267.881 654.008 275.399 666.482 272.057C678.957 268.714 686.365 255.884 683.022 243.409C679.68 230.935 666.872 223.614 654.398 226.957ZM640.545 323.401C652.835 320.016 659.666 311.381 661.92 307.835C663.525 305.382 666.914 304.658 669.4 306.198C671.887 307.739 672.584 311.046 670.979 313.499C667.941 317.991 659.33 329.126 643.346 333.5L642.906 333.618C626.811 337.931 613.61 332.641 608.71 330.184C606.093 328.862 604.956 325.673 606.339 323.096C607.722 320.518 611.018 319.451 613.635 320.773C617.449 322.693 627.792 326.818 640.193 323.495L640.545 323.401Z" fill="url(#paint0_linear_87_379)"/>
</g>
<g filter="url(#filter1_di_87_379)">
<path fill-rule="evenodd" clip-rule="evenodd" d="M-115.632 428.352C-56.1454 251.236 135.687 155.885 312.719 215.343C489.278 274.641 584.627 465.393 526.323 642.119L418.058 964.472L277.638 917.31L281.722 905.148C298.418 855.437 293.372 803.549 271.762 759.894C250.112 716.357 211.74 681.132 162.02 664.433C76.3972 635.676 -15.4741 671.307 -60.6673 745.216C-128.749 658.754 -153.346 540.645 -115.632 428.352ZM147.084 631.035L193.969 646.782C266.246 671.056 344.612 632.203 368.922 559.821C381.057 523.689 377.398 486.063 361.631 454.357C345.864 422.651 318.068 397.022 281.93 384.885L267.285 379.966L279.024 345.015C292.811 345.441 305.87 337.081 310.51 323.266C316.141 306.499 307.16 288.241 290.272 282.569C273.384 276.897 255.084 285.992 249.452 302.76C244.812 316.575 250.177 331.122 261.427 339.105L249.688 374.056L235.044 369.138C162.767 344.863 84.3616 383.834 60.0913 456.098C47.9164 492.348 51.5757 529.974 67.3822 561.562C83.1491 593.268 110.945 618.897 147.084 631.035ZM181.632 431.923C198.552 437.605 207.667 455.939 202.024 472.74C196.341 489.659 177.889 498.734 161.088 493.092C144.288 487.449 135.212 468.997 140.855 452.196C146.498 435.395 164.713 426.24 181.632 431.923ZM282.999 465.967C266.08 460.285 247.864 469.44 242.221 486.24C236.578 503.041 245.535 521.454 262.455 527.136C279.374 532.819 297.708 523.704 303.39 506.784C309.072 489.865 299.918 471.65 282.999 465.967ZM193.354 566.443C210.094 571.935 224.556 567.211 229.863 564.85C233.585 563.251 238.04 565.007 239.727 568.68C241.413 572.354 239.689 576.696 235.967 578.294C229.036 581.145 210.612 587.388 188.862 580.213L188.266 580.012C166.436 572.681 155.277 556.502 151.511 549.929C149.508 546.408 150.635 541.866 154.198 539.955C157.76 538.044 162.371 539.333 164.374 542.855C167.299 547.98 176.058 560.633 192.877 566.282L193.354 566.443Z" fill="url(#paint1_linear_87_379)"/>
</g>
<g filter="url(#filter2_di_87_379)">
<path fill-rule="evenodd" clip-rule="evenodd" d="M387.024 791.993C366.521 657.429 459.007 531.719 593.506 511.226C727.646 490.788 852.994 582.574 874.133 716.49L911.448 961.396L804.764 977.651L803.356 968.411C797.602 930.643 777.037 898.712 748.487 877.636C719.95 856.649 683.351 846.621 645.577 852.376C580.526 862.288 532.889 915.993 528.248 978.935C455.326 945.618 400.023 877.306 387.024 791.993ZM624.769 835.72L660.39 830.292C715.302 821.926 753.116 770.635 744.737 715.644C740.555 688.193 725.643 665.038 704.861 649.755C684.078 634.471 657.529 627.134 630.073 631.317L618.947 633.013L614.901 606.459C623.975 602.139 629.648 592.371 628.049 581.875C626.108 569.136 614.204 560.302 601.373 562.257C588.542 564.212 579.719 576.204 581.66 588.943C583.26 599.439 591.584 607.074 601.532 608.496L605.578 635.05L594.452 636.745C539.54 645.111 501.74 696.491 510.105 751.393C514.301 778.934 529.213 802.088 549.982 817.282C570.764 832.566 597.313 839.903 624.769 835.72ZM580.78 695.22C593.635 693.261 605.651 702.1 607.595 714.864C609.554 727.718 600.626 739.748 587.861 741.693C575.097 743.637 563.067 734.709 561.123 721.945C559.178 709.18 567.926 697.178 580.78 695.22ZM657.793 683.486C644.939 685.444 636.19 697.446 638.135 710.211C640.08 722.975 652.019 731.917 664.874 729.959C677.728 728 686.566 715.984 684.608 703.13C682.649 690.276 670.647 681.527 657.793 683.486ZM633.213 778.454C645.888 776.432 653.682 768.551 656.332 765.253C658.211 762.977 661.682 762.629 663.999 764.447C666.316 766.264 666.647 769.651 664.768 771.927C661.228 776.085 651.374 786.27 634.893 788.871L634.44 788.94C617.855 791.467 605.234 784.707 600.603 781.704C598.132 780.09 597.348 776.773 599.019 774.347C600.689 771.922 604.106 771.22 606.578 772.834C610.181 775.179 620.072 780.456 632.851 778.509L633.213 778.454Z" fill="url(#paint2_linear_87_379)"/>
</g>
<defs>
<filter id="filter0_i_87_379" x="390.598" y="55.5501" width="588.668" height="521.266" filterUnits="userSpaceOnUse" color-interpolation-filters="sRGB">
<feFlood flood-opacity="0" result="BackgroundImageFix"/>
<feBlend mode="normal" in="SourceGraphic" in2="BackgroundImageFix" result="shape"/>
<feColorMatrix in="SourceAlpha" type="matrix" values="0 0 0 0 0 0 0 0 0 0 0 0 0 0 0 0 0 0 127 0" result="hardAlpha"/>
<feOffset dx="44" dy="44"/>
<feGaussianBlur stdDeviation="30"/>
<feComposite in2="hardAlpha" operator="arithmetic" k2="-1" k3="1"/>
<feColorMatrix type="matrix" values="0 0 0 0 1 0 0 0 0 1 0 0 0 0 1 0 0 0 1 0"/>
<feBlend mode="normal" in2="shape" result="effect1_innerShadow_87_379"/>
</filter>
<filter id="filter1_di_87_379" x="-177.312" y="113.66" width="804.76" height="914.812" filterUnits="userSpaceOnUse" color-interpolation-filters="sRGB">
<feFlood flood-opacity="0" result="BackgroundImageFix"/>
<feColorMatrix in="SourceAlpha" type="matrix" values="0 0 0 0 0 0 0 0 0 0 0 0 0 0 0 0 0 0 127 0" result="hardAlpha"/>
<feOffset dx="20" dy="-20"/>
<feGaussianBlur stdDeviation="32"/>
<feComposite in2="hardAlpha" operator="out"/>
<feColorMatrix type="matrix" values="0 0 0 0 0.137255 0 0 0 0 0.137255 0 0 0 0 0.2 0 0 0 0.2 0"/>
<feBlend mode="normal" in2="BackgroundImageFix" result="effect1_dropShadow_87_379"/>
<feBlend mode="normal" in="SourceGraphic" in2="effect1_dropShadow_87_379" result="shape"/>
<feColorMatrix in="SourceAlpha" type="matrix" values="0 0 0 0 0 0 0 0 0 0 0 0 0 0 0 0 0 0 127 0" result="hardAlpha"/>
<feOffset dx="64" dy="64"/>
<feGaussianBlur stdDeviation="38"/>
<feComposite in2="hardAlpha" operator="arithmetic" k2="-1" k3="1"/>
<feColorMatrix type="matrix" values="0 0 0 0 1 0 0 0 0 1 0 0 0 0 1 0 0 0 1 0"/>
<feBlend mode="normal" in2="shape" result="effect2_innerShadow_87_379"/>
</filter>
<filter id="filter2_di_87_379" x="290.179" y="414.379" width="675.27" height="618.555" filterUnits="userSpaceOnUse" color-interpolation-filters="sRGB">
<feFlood flood-opacity="0" result="BackgroundImageFix"/>
<feColorMatrix in="SourceAlpha" type="matrix" values="0 0 0 0 0 0 0 0 0 0 0 0 0 0 0 0 0 0 127 0" result="hardAlpha"/>
<feOffset dx="-20" dy="-20"/>
<feGaussianBlur stdDeviation="37"/>
<feComposite in2="hardAlpha" operator="out"/>
<feColorMatrix type="matrix" values="0 0 0 0 0.137255 0 0 0 0 0.137255 0 0 0 0 0.2 0 0 0 0.2 0"/>
<feBlend mode="normal" in2="BackgroundImageFix" result="effect1_dropShadow_87_379"/>
<feBlend mode="normal" in="SourceGraphic" in2="effect1_dropShadow_87_379" result="shape"/>
<feColorMatrix in="SourceAlpha" type="matrix" values="0 0 0 0 0 0 0 0 0 0 0 0 0 0 0 0 0 0 127 0" result="hardAlpha"/>
<feOffset dx="34" dy="34"/>
<feGaussianBlur stdDeviation="28"/>
<feComposite in2="hardAlpha" operator="arithmetic" k2="-1" k3="1"/>
<feColorMatrix type="matrix" values="0 0 0 0 1 0 0 0 0 1 0 0 0 0 1 0 0 0 1 0"/>
<feBlend mode="normal" in2="shape" result="effect2_innerShadow_87_379"/>
</filter>
<linearGradient id="paint0_linear_87_379" x1="572.095" y1="63.9426" x2="698.811" y2="536.852" gradientUnits="userSpaceOnUse">
<stop stop-color="white"/>
<stop offset="1" stop-color="#6B6B6B"/>
</linearGradient>
<linearGradient id="paint1_linear_87_379" x1="312.778" y1="215.362" x2="97.3585" y2="856.762" gradientUnits="userSpaceOnUse">
<stop stop-color="white"/>
<stop offset="1" stop-color="#6B6B6B"/>
</linearGradient>
<linearGradient id="paint2_linear_87_379" x1="593.551" y1="511.219" x2="667.798" y2="998.519" gradientUnits="userSpaceOnUse">
<stop stop-color="white"/>
<stop offset="1" stop-color="#6B6B6B"/>
</linearGradient>
</defs>
</svg>
