<svg width="96" height="96" viewBox="0 0 96 96" fill="none" xmlns="http://www.w3.org/2000/svg">
<path d="M48 96C74.5097 96 96 74.5097 96 48C96 21.4903 74.5097 0 48 0C21.4903 0 0 21.4903 0 48C0 74.5097 21.4903 96 48 96Z" fill="white" fill-opacity="0.1"/>
<path fill-rule="evenodd" clip-rule="evenodd" d="M60 36C60 42.624 54.624 48 48 48C41.376 48 36 42.624 36 36C36 29.376 41.352 24 48 24C54.648 24 60 29.376 60 36Z" stroke="white" stroke-width="3.6"/>
<path fill-rule="evenodd" clip-rule="evenodd" d="M69 63.6V67.512C69 69.984 66.984 72 64.488 72H31.488C28.992 72 27 69.984 27 67.512V63.6C27 56.64 32.64 51 39.6 51H41.16C43.248 51.96 45.552 52.512 48 52.512C50.448 52.512 52.752 51.96 54.816 51H56.4C63.336 51 69 56.64 69 63.6Z" stroke="white" stroke-width="3.6"/>
</svg>
