<svg width="20" height="20" viewBox="0 0 20 20" fill="none" xmlns="http://www.w3.org/2000/svg">
<path fill-rule="evenodd" clip-rule="evenodd" d="M10 20C15.5228 20 20 15.5228 20 10C20 4.47715 15.5228 0 10 0C4.47715 0 0 4.47715 0 10C0 15.5228 4.47715 20 10 20ZM9.29696 5.30831C8.88588 4.89723 8.21939 4.89723 7.80831 5.30831C7.39723 5.71939 7.39723 6.38588 7.80831 6.79695L11.0114 10L7.80831 13.203C7.39723 13.6141 7.39723 14.2806 7.80831 14.6917C8.21939 15.1028 8.88588 15.1028 9.29696 14.6917L13.2443 10.7443C13.6554 10.3332 13.6554 9.66675 13.2443 9.25568L9.29696 5.30831Z" fill="white"/>
</svg>
