<svg width="40" height="41" viewBox="0 0 40 41" fill="none" xmlns="http://www.w3.org/2000/svg">
<path fill-rule="evenodd" clip-rule="evenodd" d="M0 20.7976C0 9.75195 8.95435 0.797607 19.9926 0.797607C31.0015 0.797607 39.9337 9.69304 39.9926 20.6945V40.7976H31.2371V40.0391C31.2371 36.939 29.9779 34.126 27.9455 32.0863C25.9131 30.0539 23.1002 28.802 20 28.802C14.6613 28.802 10.1841 32.5281 9.04271 37.5207C3.60088 33.9567 0 27.8006 0 20.7976ZM18.5346 27.2115H21.458C25.9647 27.2115 29.6245 23.559 29.6245 19.045C29.6245 16.7917 28.7113 14.752 27.2312 13.2718C25.7511 11.7917 23.7113 10.8786 21.458 10.8786H20.5449V8.69893C21.3255 8.46329 21.8999 7.74901 21.8999 6.88745C21.8999 5.84179 21.053 4.98759 20 4.98759C18.947 4.98759 18.0928 5.84179 18.0928 6.88745C18.0928 7.74901 18.6672 8.46329 19.4477 8.69893V10.8786H18.5346C14.028 10.8786 10.3682 14.5384 10.3682 19.045C10.3682 21.3057 11.2813 23.3455 12.7614 24.8182C14.2415 26.2983 16.2813 27.2115 18.5346 27.2115ZM16.7527 15.3779C17.8057 15.3779 18.6599 16.2321 18.6599 17.2777C18.6599 18.3308 17.7983 19.1849 16.7527 19.1849C15.707 19.1849 14.8528 18.3234 14.8528 17.2777C14.8528 16.2321 15.6997 15.3779 16.7527 15.3779ZM23.0194 15.3779C21.9664 15.3779 21.1196 16.2321 21.1196 17.2777C21.1196 18.3234 21.9664 19.1849 23.0194 19.1849C24.0724 19.1849 24.9266 18.3308 24.9266 17.2777C24.9266 16.2247 24.0724 15.3779 23.0194 15.3779ZM19.9118 22.7416C20.9428 22.7343 21.6571 22.1893 21.9074 21.9537C22.0842 21.7917 22.364 21.8064 22.526 21.9832C22.688 22.1599 22.6733 22.4397 22.4965 22.6017C22.1652 22.8963 21.2594 23.6032 19.9192 23.6106H19.8824C18.5348 23.6106 17.6143 22.9036 17.283 22.6017C17.1062 22.4397 17.0842 22.1599 17.2462 21.9832C17.4082 21.8064 17.688 21.7917 17.8647 21.9537C18.1224 22.1893 18.8441 22.7416 19.8824 22.7416H19.9118Z" fill="#56C596"/>
</svg>
