<svg width="22" height="22" viewBox="0 0 22 22" fill="none" xmlns="http://www.w3.org/2000/svg">
<path d="M18.0023 9.66513L12.3349 3.99631M1 19.1104V16.1067C1.00278 15.6114 1.19978 15.1356 1.54802 14.7846L14.7725 1.56008C14.948 1.38265 15.1569 1.24178 15.3872 1.14564C15.6175 1.0495 15.8645 1 16.1141 1C16.3636 1 16.6107 1.0495 16.841 1.14564C17.0713 1.24178 17.2802 1.38265 17.4557 1.56008L20.4399 4.54433C20.6174 4.7198 20.7582 4.92873 20.8544 5.15902C20.9505 5.3893 21 5.63637 21 5.88592C21 6.13547 20.9505 6.38254 20.8544 6.61283C20.7582 6.84311 20.6174 7.05204 20.4399 7.22751L7.21545 20.452C6.8638 20.8012 6.38887 20.9981 5.89328 21H2.88961C2.64136 21.0004 2.39548 20.9517 2.16606 20.8569C1.93663 20.7621 1.72818 20.6229 1.55264 20.4474C1.3771 20.2718 1.23793 20.0634 1.1431 19.8339C1.04826 19.6045 0.999637 19.3586 1 19.1104Z" stroke="white" stroke-width="1.6" stroke-linecap="round" stroke-linejoin="round"/>
</svg>
