<svg width="18" height="22" viewBox="0 0 18 22" fill="none" xmlns="http://www.w3.org/2000/svg">
<path fill-rule="evenodd" clip-rule="evenodd" d="M6.85 2.99995C6.85 2.33721 7.38726 1.79995 8.05 1.79995H10.05C10.7127 1.79995 11.25 2.33721 11.25 2.99995V3.19995H6.85V2.99995ZM5.25 3.19995V2.99995C5.25 1.45355 6.5036 0.199951 8.05 0.199951H10.05C11.5964 0.199951 12.85 1.45355 12.85 2.99995V3.19995H16.0394H16.0592H17.05C17.4918 3.19995 17.85 3.55812 17.85 3.99995C17.85 4.44178 17.4918 4.79995 17.05 4.79995H16.8043L15.9594 19.1643C15.8723 20.6443 14.6467 21.7999 13.1642 21.7999H4.93583C3.4533 21.7999 2.22772 20.6443 2.14067 19.1643L1.2957 4.79995H1.05C0.608172 4.79995 0.25 4.44178 0.25 3.99995C0.25 3.55812 0.608172 3.19995 1.05 3.19995H2.04083H2.06068H5.25ZM12.05 4.79995H6.05H2.89847L3.73791 19.0704C3.77522 19.7047 4.30046 20.1999 4.93583 20.1999H13.1642C13.7996 20.1999 14.3248 19.7047 14.3621 19.0704L15.2016 4.79995H12.05ZM7.85 7.99995C7.85 7.55812 7.49183 7.19995 7.05 7.19995C6.60817 7.19995 6.25 7.55812 6.25 7.99995V17C6.25 17.4418 6.60817 17.8 7.05 17.8C7.49183 17.8 7.85 17.4418 7.85 17V7.99995ZM11.05 7.19995C11.4918 7.19995 11.85 7.55812 11.85 7.99995V17C11.85 17.4418 11.4918 17.8 11.05 17.8C10.6082 17.8 10.25 17.4418 10.25 17V7.99995C10.25 7.55812 10.6082 7.19995 11.05 7.19995Z" fill="white"/>
</svg>
