<svg width="22" height="22" viewBox="0 0 22 22" fill="none" xmlns="http://www.w3.org/2000/svg">
<path d="M12.0258 11L16.2882 6.7375C16.3556 6.67015 16.409 6.59019 16.4455 6.50219C16.4819 6.41419 16.5007 6.31987 16.5007 6.22463C16.5007 6.12938 16.4819 6.03506 16.4455 5.94706C16.409 5.85906 16.3556 5.7791 16.2882 5.71175C16.2209 5.6444 16.1409 5.59097 16.0529 5.55452C15.9649 5.51807 15.8706 5.49931 15.7754 5.49931C15.6801 5.49931 15.5858 5.51807 15.4978 5.55452C15.4098 5.59097 15.3299 5.6444 15.2625 5.71175L11 9.97425L6.7375 5.71175C6.67015 5.6444 6.59019 5.59097 6.50219 5.55452C6.41419 5.51807 6.31987 5.49931 6.22463 5.49931C6.12938 5.49931 6.03506 5.51807 5.94706 5.55452C5.85906 5.59097 5.7791 5.6444 5.71175 5.71175C5.6444 5.7791 5.59097 5.85906 5.55452 5.94706C5.51807 6.03506 5.49931 6.12938 5.49931 6.22463C5.49931 6.31987 5.51807 6.41419 5.55452 6.50219C5.59097 6.59019 5.6444 6.67015 5.71175 6.7375L9.97425 11L5.71175 15.2625C5.6444 15.3299 5.59097 15.4098 5.55452 15.4978C5.51807 15.5858 5.49931 15.6801 5.49931 15.7754C5.49931 15.8706 5.51807 15.9649 5.55452 16.0529C5.59097 16.1409 5.6444 16.2209 5.71175 16.2882C5.7791 16.3556 5.85906 16.409 5.94706 16.4455C6.03506 16.4819 6.12938 16.5007 6.22463 16.5007C6.31987 16.5007 6.41419 16.4819 6.50219 16.4455C6.59019 16.409 6.67015 16.3556 6.7375 16.2882L11 12.0258L15.2625 16.2882C15.3299 16.3556 15.4098 16.409 15.4978 16.4455C15.5858 16.4819 15.6801 16.5007 15.7754 16.5007C15.8706 16.5007 15.9649 16.4819 16.0529 16.4455C16.1409 16.409 16.2209 16.3556 16.2882 16.2882C16.3556 16.2209 16.409 16.1409 16.4455 16.0529C16.4819 15.9649 16.5007 15.8706 16.5007 15.7754C16.5007 15.6801 16.4819 15.5858 16.4455 15.4978C16.409 15.4098 16.3556 15.3299 16.2882 15.2625L12.0258 11ZM11 22C8.08262 22 5.28473 20.8411 3.22183 18.7782C1.15893 16.7153 0 13.9174 0 11C0 8.08262 1.15893 5.28473 3.22183 3.22183C5.28473 1.15893 8.08262 0 11 0C13.9174 0 16.7153 1.15893 18.7782 3.22183C20.8411 5.28473 22 8.08262 22 11C22 13.9174 20.8411 16.7153 18.7782 18.7782C16.7153 20.8411 13.9174 22 11 22Z" fill="#FF5B5B"/>
</svg>
