<svg width="18" height="22" viewBox="0 0 18 22" fill="none" xmlns="http://www.w3.org/2000/svg">
<g clip-path="url(#clip0_98_676)">
<path fill-rule="evenodd" clip-rule="evenodd" d="M7.70957 12.97C7.70957 12.31 7.16957 11.77 6.50957 11.77C5.84957 11.77 5.30957 12.31 5.30957 12.97C5.30957 13.63 5.84957 14.17 6.50957 14.17C7.16957 14.17 7.70957 13.63 7.70957 12.97Z" fill="white"/>
<path fill-rule="evenodd" clip-rule="evenodd" d="M11.0896 11.77C10.4296 11.77 9.88965 12.31 9.88965 12.97C9.88965 13.63 10.4296 14.17 11.0896 14.17C11.7496 14.17 12.2896 13.63 12.2896 12.97C12.2896 12.31 11.7496 11.77 11.0896 11.77Z" fill="white"/>
<path fill-rule="evenodd" clip-rule="evenodd" d="M15.37 9.53C13.99 8.21 12.11 7.4 10.02 7.4H9.61V5.88C10.88 5.53 11.81 4.38 11.81 3C11.81 1.34 10.47 0 8.81 0C7.15 0 5.81 1.34 5.81 3C5.81 4.38 6.74 5.53 8.01 5.88V7.4H7.6C3.43 7.4 0 10.64 0 14.7C0 16.73 0.86 18.56 2.23 19.87C3.61 21.19 5.49 22 7.58 22H10.01C14.17 22 17.6 18.76 17.6 14.7C17.6 12.68 16.74 10.84 15.37 9.53ZM7.4 3C7.4 2.23 8.03 1.6 8.8 1.6C9.57 1.6 10.2 2.23 10.2 3C10.2 3.77 9.57 4.4 8.8 4.4C8.03 4.4 7.4 3.77 7.4 3ZM10.01 20.4H7.58C5.91 20.4 4.42 19.76 3.33 18.72C2.25 17.68 1.59 16.27 1.59 14.7C1.59 11.58 4.24 9 7.58 9H10.01C11.68 9 13.17 9.64 14.26 10.68C15.34 11.72 16 13.14 16 14.7C16 17.82 13.35 20.4 10.01 20.4Z" fill="white"/>
<path fill-rule="evenodd" clip-rule="evenodd" d="M10.2796 16.19C9.8796 16.53 9.3696 16.73 8.7896 16.73C8.2096 16.73 7.7196 16.53 7.3096 16.2C6.9696 15.92 6.4696 15.96 6.1796 16.3C5.8996 16.64 5.9396 17.14 6.2796 17.43C6.9596 17.99 7.8196 18.34 8.7796 18.34C9.7396 18.34 10.6196 18 11.3096 17.42C11.6496 17.13 11.6896 16.63 11.3996 16.29C11.1096 15.95 10.6096 15.91 10.2696 16.2L10.2796 16.19Z" fill="white"/>
</g>
<defs>
<clipPath id="clip0_98_676">
<rect width="17.6" height="22" fill="white"/>
</clipPath>
</defs>
</svg>
