<svg width="18" height="22" viewBox="0 0 18 22" fill="none" xmlns="http://www.w3.org/2000/svg">
<path d="M17.37 5.23L12.37 0.23C12.22 0.08 12.02 0 11.8 0H2.8C2.06 0 1.35 0.29 0.82 0.82C0.29 1.35 0 2.06 0 2.8V18.8C0 19.54 0.29 20.25 0.82 20.78C1.35 21.31 2.06 21.6 2.8 21.6H14.8C15.54 21.6 16.25 21.3 16.78 20.78C17.31 20.25 17.6 19.54 17.6 18.8V6.8V5.8C17.6 5.59 17.52 5.38 17.37 5.23ZM11.6 1.73L15.87 6H12.8C12.48 6 12.18 5.87 11.95 5.65C11.72 5.42 11.6 5.12 11.6 4.8V1.73ZM16 18.8C16 19.12 15.87 19.42 15.65 19.65C15.42 19.87 15.12 20 14.8 20H2.8C2.48 20 2.18 19.87 1.95 19.65C1.72 19.42 1.6 19.12 1.6 18.8V2.8C1.6 2.48 1.73 2.18 1.95 1.95C2.18 1.72 2.48 1.6 2.8 1.6H10V4.8C10 5.54 10.29 6.25 10.82 6.78C11.35 7.31 12.06 7.6 12.8 7.6H16V18.8Z" fill="white"/>
<path d="M6.91035 12.65L8.00035 11.56V15.02C8.00035 15.46 8.36035 15.82 8.80035 15.82C9.24035 15.82 9.60035 15.46 9.60035 15.02V11.56L10.6904 12.65C10.8504 12.81 11.0504 12.88 11.2604 12.88C11.4704 12.88 11.6704 12.8 11.8304 12.65C12.1404 12.34 12.1404 11.83 11.8304 11.52L9.37035 9.05996C9.07035 8.75996 8.54035 8.75996 8.24035 9.05996L5.78035 11.52C5.47035 11.83 5.47035 12.34 5.78035 12.65C6.09035 12.96 6.60035 12.96 6.91035 12.65Z" fill="white"/>
<path d="M12.1701 16.75H5.42012C4.98012 16.75 4.62012 17.11 4.62012 17.55C4.62012 17.99 4.98012 18.35 5.42012 18.35H12.1701C12.6101 18.35 12.9701 17.99 12.9701 17.55C12.9701 17.11 12.6101 16.75 12.1701 16.75Z" fill="white"/>
</svg>
