<svg width="80" height="80" viewBox="0 0 80 80" fill="none" xmlns="http://www.w3.org/2000/svg">
<circle cx="40" cy="40" r="40" fill="white" fill-opacity="0.2"/>
<path fill-rule="evenodd" clip-rule="evenodd" d="M44.0396 32.1335C45.0785 33.1724 46.4695 33.7447 47.9134 33.7447H54.1731V55.6493C54.1731 56.2832 53.9266 56.8643 53.4952 57.3133C53.0462 57.7447 52.4563 58 51.8312 58H28.3507C27.7256 58 27.1357 57.7447 26.6867 57.3133C26.2377 56.8643 26 56.2832 26 55.6493V24.3507C26 23.7256 26.2553 23.1357 26.6867 22.6867C27.1357 22.2377 27.7256 22 28.3507 22H42.4373V28.2597C42.4373 29.7124 43.0095 31.1034 44.0396 32.1335ZM38.9949 36.5972L34.179 41.4131C33.5715 42.0205 33.5715 43.0154 34.179 43.6229C34.7865 44.2304 35.7902 44.2304 36.3888 43.6229L38.5282 41.4923V48.2538C38.5282 49.1166 39.2238 49.821 40.0866 49.821C40.9494 49.821 41.6537 49.1166 41.6537 48.2538V41.4923L43.7843 43.6229C44.1012 43.931 44.4886 44.0719 44.9024 44.0719C45.3162 44.0719 45.7036 43.9134 46.0205 43.6229C46.628 43.0154 46.628 42.0205 46.0205 41.4131L41.2047 36.5972C40.6148 36.0073 39.5847 36.0073 38.9949 36.5972ZM33.4747 54.7689H46.6808C47.5436 54.7689 48.248 54.0734 48.248 53.2106C48.248 52.3477 47.5436 51.6434 46.6808 51.6434H33.4747C32.6207 51.6434 31.9164 52.3566 31.9164 53.2106C31.9164 54.0646 32.6207 54.7689 33.4747 54.7689ZM47.9135 30.6105H53.9267L45.5716 22.2554V28.2598C45.5716 28.8848 45.8005 29.4747 46.2495 29.9237C46.7073 30.3551 47.2884 30.6105 47.9135 30.6105Z" fill="white"/>
</svg>
