<svg width="40" height="40" viewBox="0 0 40 40" fill="none" xmlns="http://www.w3.org/2000/svg">
<path fill-rule="evenodd" clip-rule="evenodd" d="M20 40C31.0457 40 40 31.0457 40 20C40 8.9543 31.0457 0 20 0C8.9543 0 0 8.9543 0 20C0 31.0457 8.9543 40 20 40ZM24.75 15C24.75 17.7617 22.5117 20 19.75 20C16.9883 20 14.75 17.7617 14.75 15C14.75 12.2383 16.9883 10 19.75 10C22.5117 10 24.75 12.2383 24.75 15ZM22.5977 21.25H23.25C26.1484 21.25 28.5 23.6016 28.5 26.5V28.125C28.5 29.1602 27.6602 30 26.625 30H12.875C11.8398 30 11 29.1602 11 28.125V26.5C11 23.6016 13.3516 21.25 16.25 21.25H16.9023C17.7734 21.6484 18.7344 21.875 19.75 21.875C20.7656 21.875 21.7305 21.6484 22.5977 21.25Z" fill="#38A3A5"/>
</svg>
